<?xml version="1.0" standalone="no"?>
<!DOCTYPE svg PUBLIC "-//W3C//DTD SVG 20010904//EN"
 "http://www.w3.org/TR/2001/REC-SVG-20010904/DTD/svg10.dtd">
<svg version="1.0" xmlns="http://www.w3.org/2000/svg"
 width="493.000000pt" height="493.000000pt" viewBox="0 0 493.000000 493.000000"
 preserveAspectRatio="xMidYMid meet">
<metadata>
Created by potrace 1.14, written by Peter Selinger 2001-2017
</metadata>
<g transform="translate(0.000000,493.000000) scale(0.100000,-0.100000)"
fill="#000000" stroke="none">
<path d="M1131 4908 c-149 -401 -301 -787 -437 -1110 -30 -70 -54 -129 -54
-132 0 -3 -22 -52 -50 -109 -28 -57 -50 -107 -50 -110 0 -4 -18 -43 -39 -87
-22 -45 -43 -91 -46 -103 -4 -12 -38 -85 -75 -162 -107 -220 -160 -337 -160
-351 0 -24 -49 -125 -75 -156 l-26 -31 3 -343 c2 -231 7 -347 14 -354 8 -8 34
-6 96 6 84 16 85 17 104 58 27 57 77 82 134 65 52 -16 58 -24 71 -95 6 -33 13
-61 15 -63 2 -2 24 -6 48 -8 42 -5 46 -3 65 28 11 18 23 47 27 64 3 16 11 35
16 42 5 7 13 37 17 67 7 53 6 56 -27 93 -19 21 -38 49 -44 63 -9 24 -10 24
-23 6 -14 -18 -15 -18 -26 10 -6 16 -12 34 -13 40 -1 7 -7 18 -13 26 -7 7 -21
35 -32 61 -22 50 -21 138 2 166 6 7 16 23 22 34 19 38 43 33 65 -15 15 -33 20
-65 20 -140 0 -54 3 -98 8 -98 4 0 16 7 26 15 31 24 84 -3 110 -55 12 -25 13
-111 0 -182 -6 -35 -4 -38 30 -52 20 -8 37 -20 37 -25 6 -50 34 -128 56 -158
13 -18 36 -36 51 -39 15 -4 34 -13 43 -21 25 -21 38 2 55 103 8 49 22 109 31
134 9 25 18 78 19 118 2 40 8 81 13 90 5 10 8 46 7 81 -4 81 8 146 33 179 18
25 18 28 1 67 -58 133 -88 292 -62 331 10 16 68 44 89 44 40 0 93 -22 124 -51
30 -28 31 -32 25 -85 -4 -33 -15 -67 -27 -82 -17 -22 -19 -35 -14 -82 4 -38 1
-68 -9 -98 -11 -32 -13 -49 -6 -63 7 -12 8 -53 4 -109 -4 -56 -3 -105 4 -128
17 -61 44 -261 38 -286 -5 -22 -43 -46 -72 -46 -8 0 -22 -16 -30 -35 -18 -43
-19 -141 -1 -143 6 -1 27 -5 45 -8 44 -9 96 9 205 69 49 27 91 47 93 44 3 -3
-20 -30 -50 -61 -30 -31 -57 -62 -60 -69 -3 -9 -5 -9 -5 1 -1 9 -8 8 -26 -4
-14 -9 -43 -17 -64 -18 -22 0 -37 -4 -35 -8 3 -5 -2 -8 -10 -8 -9 0 -16 -6
-16 -12 0 -10 -2 -10 -8 0 -10 16 -33 5 -110 -52 -45 -33 -57 -37 -87 -32 -34
7 -91 -13 -106 -36 -3 -5 -10 -10 -15 -10 -14 -1 -27 -4 -64 -17 -19 -7 -53
-17 -75 -22 -22 -6 -49 -16 -61 -24 -11 -7 -31 -11 -45 -8 -16 3 -30 -1 -38
-11 -8 -9 -21 -16 -31 -16 -10 0 -34 -7 -53 -15 -31 -13 -38 -13 -50 0 -8 7
-23 12 -33 10 -64 -13 -74 -16 -69 -24 3 -5 -11 -9 -31 -8 -21 1 -39 -5 -44
-13 -5 -8 -11 -12 -14 -10 -8 9 18 35 59 60 22 13 44 30 48 37 4 7 15 13 23
13 8 0 13 4 9 9 -7 13 2 18 49 26 28 6 37 5 32 -4 -4 -6 0 -11 9 -11 30 0 319
78 350 94 17 9 35 16 42 16 6 0 15 5 19 11 5 8 -13 9 -62 4 -38 -4 -170 -6
-294 -4 -272 5 -382 3 -477 -6 l-73 -7 0 -91 c0 -50 3 -88 6 -84 8 8 62 -19
90 -44 15 -14 37 -20 82 -21 34 -1 62 -6 62 -10 0 -5 -5 -6 -12 -2 -7 5 -9 2
-5 -9 3 -9 -1 -30 -9 -46 -24 -48 -43 -55 -101 -39 -28 7 -33 12 -22 20 16 11
-18 4 -64 -14 l-27 -10 0 -234 0 -234 58 0 c31 0 62 -4 68 -8 12 -7 25 -120
26 -217 1 -76 -20 -228 -48 -341 -13 -56 -24 -120 -24 -143 l0 -41 2300 0
2300 0 0 145 c0 90 -4 145 -10 145 -5 0 -10 7 -10 15 0 9 -7 26 -15 38 -8 13
-16 32 -18 44 -1 12 -9 28 -16 37 -7 8 -11 21 -9 27 7 20 37 -18 48 -61 19
-69 30 -56 30 34 0 82 -13 136 -33 136 -5 0 -7 7 -4 14 4 10 1 13 -7 10 -8 -3
-21 5 -30 17 -8 13 -18 20 -22 16 -13 -13 -87 88 -100 137 -10 43 18 32 81
-32 l57 -57 -7 150 c-13 265 -43 397 -111 479 -23 28 -34 34 -55 30 -16 -3
-31 1 -38 10 -7 8 -20 12 -28 9 -10 -4 -14 -2 -10 4 4 6 -8 9 -29 8 -20 0 -38
3 -40 7 -3 4 -29 8 -57 8 -29 0 -81 9 -117 21 -70 21 -91 26 -188 38 -55 7
-91 24 -112 53 -12 16 -103 58 -126 58 -13 0 -24 4 -24 8 0 8 -108 62 -124 62
-4 0 -20 8 -34 19 -39 27 -154 70 -193 73 -19 1 -55 12 -81 25 -27 13 -48 20
-48 16 0 -5 -4 -2 -9 6 -6 9 -14 10 -27 3 -25 -13 -91 13 -99 39 -4 10 -14 19
-23 19 -15 0 -15 2 -2 10 12 8 9 10 -13 10 -28 0 -87 47 -87 68 0 5 -7 12 -15
16 -8 3 -15 12 -15 19 0 8 -11 23 -25 33 -14 10 -25 29 -25 41 0 13 -5 23 -11
23 -8 0 -8 5 1 15 8 10 9 15 2 15 -6 0 -22 24 -36 53 l-25 52 34 -37 c47 -51
65 -58 123 -51 44 5 54 2 86 -22 33 -25 49 -65 26 -65 -5 0 -10 -7 -10 -15 0
-7 -8 -19 -17 -24 -10 -6 -13 -11 -8 -11 6 -1 2 -5 -9 -9 -16 -6 -10 -14 40
-58 33 -28 91 -64 129 -81 96 -41 415 -146 422 -138 4 3 1 6 -5 6 -13 0 -1 28
27 63 16 19 75 23 127 8 35 -10 47 -5 57 22 5 14 15 18 44 15 37 -3 38 -2 41
31 2 19 -4 53 -13 75 -97 233 -148 313 -189 300 -11 -4 -50 -6 -85 -6 -43 2
-72 -3 -87 -13 -13 -8 -30 -15 -38 -15 -23 0 -55 50 -87 131 -31 79 -27 111
14 130 28 13 75 -3 83 -28 16 -51 47 -102 80 -131 20 -18 39 -32 42 -32 18 1
34 19 27 30 -6 10 -1 11 18 6 21 -5 25 -3 21 9 -4 8 -1 15 5 15 23 0 9 63 -44
202 -31 79 -60 152 -65 163 -5 11 -26 65 -46 120 -20 55 -66 163 -103 240 -44
89 -70 158 -74 190 -7 53 -31 131 -180 565 -97 282 -199 581 -257 750 -17 52
-41 125 -51 163 -41 147 -60 213 -65 240 l-6 27 -889 0 -889 0 -9 -22z m856
-310 c-4 -29 -9 -68 -11 -87 -3 -19 -2 -39 3 -45 5 -6 11 -22 13 -36 3 -23 7
-25 58 -26 30 0 76 -4 102 -8 28 -4 55 -3 66 3 23 12 163 -25 208 -54 15 -9
23 -12 20 -6 -4 6 -1 11 7 11 8 0 17 -11 19 -24 l5 -24 -70 29 c-51 21 -73 26
-78 18 -5 -9 -14 -9 -36 -1 -57 22 -141 35 -187 28 -25 -4 -46 -11 -46 -15 0
-5 -19 -11 -42 -15 -49 -8 -64 -16 -49 -26 7 -4 -7 -12 -31 -19 -24 -7 -60
-20 -81 -29 -46 -19 -53 -13 -26 22 l21 27 -26 82 c-14 45 -26 89 -26 98 0 23
24 67 49 90 12 11 21 26 21 34 0 16 20 22 79 24 l44 1 -6 -52z m318 -58 c4 -6
-6 -10 -22 -10 -22 0 -25 2 -13 10 19 12 27 12 35 0z m-745 -120 c32 -17 43
-71 26 -121 -8 -24 -13 -45 -11 -47 7 -7 -22 -31 -47 -41 -21 -8 -26 -4 -46
30 -21 36 -28 109 -11 109 3 0 9 13 12 28 3 16 16 33 29 40 29 14 26 14 48 2z
m653 -75 c27 -4 46 -9 43 -12 -3 -4 -1 -12 5 -19 8 -10 -2 -9 -43 2 -74 19
-82 17 -20 -7 57 -22 70 -49 25 -49 -22 0 -25 -2 -13 -10 8 -5 23 -7 33 -4 9
3 17 1 17 -5 0 -16 -26 -13 -120 14 -66 20 -75 24 -40 21 37 -4 41 -3 21 5
-41 16 -54 31 -39 40 7 5 24 9 38 10 14 0 19 3 12 6 -18 7 -3 25 16 19 10 -2
39 -7 65 -11z m333 -92 c-7 -7 -26 7 -26 19 0 6 6 6 15 -2 9 -7 13 -15 11 -17z
m64 -20 c12 -26 13 -27 20 -8 7 18 13 15 60 -35 76 -81 164 -190 158 -196 -3
-3 -14 6 -25 20 -14 17 -24 22 -34 15 -9 -5 -10 -9 -2 -9 6 0 11 -9 10 -20 -1
-22 -5 -24 -27 -10 -10 6 -11 10 -3 10 14 0 13 26 -2 52 -9 15 -12 15 -32 -1
l-21 -18 21 -27 c12 -15 33 -28 47 -30 14 -1 31 -6 38 -10 21 -13 13 -23 -14
-18 -19 3 -25 1 -20 -7 4 -6 3 -11 -3 -11 -5 0 -13 5 -16 10 -3 6 -11 10 -17
10 -6 0 -4 -8 5 -18 18 -20 23 -57 7 -47 -13 8 -13 -5 0 -25 6 -10 10 -11 10
-2 0 6 5 12 11 12 6 0 8 -7 5 -16 -3 -8 -2 -12 4 -9 6 3 10 1 10 -5 0 -6 12
-15 26 -20 14 -6 22 -15 18 -21 -4 -8 -9 -8 -17 0 -6 6 -16 11 -23 11 -8 0 -5
-26 12 -87 24 -91 25 -134 2 -239 -6 -29 -8 -72 -4 -97 6 -42 10 -45 41 -51
42 -8 43 -15 7 -40 -28 -19 -29 -21 -25 -95 3 -42 11 -93 19 -113 7 -21 12
-50 9 -65 -2 -15 -9 -71 -15 -123 -15 -124 -36 -187 -74 -228 -25 -26 -36 -31
-58 -26 -22 4 -28 2 -28 -11 0 -14 -3 -15 -15 -5 -15 13 -20 5 -16 -27 2 -15
-15 -17 -24 -3 -3 6 -12 10 -18 9 -9 0 -9 -2 1 -6 6 -2 12 -11 12 -20 0 -8 -6
-13 -12 -11 -18 6 -23 68 -6 68 8 1 6 6 -6 15 -18 13 -18 15 -2 21 14 5 15 9
4 15 -9 7 -10 11 -2 17 8 5 9 14 1 32 -8 21 -11 22 -14 7 -5 -21 -2 -24 -117
93 -79 79 -103 87 -108 38 l-3 -33 -52 3 c-37 2 -66 -3 -100 -19 -66 -30 -116
-35 -160 -14 -20 10 -65 20 -100 23 -68 5 -73 11 -58 61 l7 24 -33 -24 c-49
-33 -76 -66 -107 -129 -15 -30 -30 -56 -34 -58 -5 -2 -8 -12 -8 -22 0 -34 -32
-160 -41 -160 -5 0 -9 9 -9 21 0 11 -4 17 -10 14 -5 -3 -10 0 -10 8 0 8 -7 20
-15 27 -11 9 -15 9 -15 1 0 -7 -4 -9 -10 -6 -5 3 -10 21 -10 38 0 23 -3 28 -9
18 -8 -12 -12 -12 -25 -2 -13 11 -16 11 -16 0 0 -9 -7 -7 -20 7 -30 29 -41
121 -43 336 -2 132 -6 191 -14 199 -10 10 -12 6 -11 -17 1 -16 -3 -78 -7 -139
-10 -133 -8 -225 6 -225 4 0 4 -15 0 -32 -3 -18 -6 -67 -6 -109 0 -66 -2 -74
-13 -58 -7 11 -10 24 -6 30 3 6 -2 23 -13 37 -19 28 -19 33 -5 114 15 84 3
306 -20 365 -15 40 -17 56 -8 72 6 12 15 21 19 21 5 0 11 9 14 20 4 15 14 20
36 20 49 0 64 40 56 153 -17 247 1 350 73 425 7 8 19 27 27 43 9 16 22 29 30
29 8 0 15 7 15 16 0 12 6 15 26 10 21 -6 25 -4 21 8 -8 20 26 22 42 2 8 -10
21 -12 46 -6 28 6 37 4 56 -16 17 -18 25 -21 35 -13 8 6 20 9 29 6 8 -4 17 -2
20 4 9 13 125 9 150 -6 36 -21 85 -26 92 -10 3 9 15 14 27 13 11 -2 22 1 23 5
5 19 32 35 49 31 12 -3 24 3 32 16 12 19 11 24 -5 36 -22 16 -14 18 23 4 24
-9 25 -9 14 5 -8 9 -8 15 -2 15 6 0 14 -4 17 -10 3 -5 11 -10 18 -10 8 0 8 3
-1 12 -17 17 -15 31 2 25 10 -4 13 -1 9 9 -3 7 -15 14 -27 14 -16 0 -18 2 -7
9 9 6 26 2 47 -10 26 -14 34 -16 34 -5 0 17 25 27 45 20 8 -4 22 -3 31 0 14 5
14 9 3 23 -10 12 -10 14 -1 9 6 -4 12 -3 12 3 0 5 -4 13 -10 16 -5 3 -10 11
-10 16 0 6 18 -4 40 -21 22 -17 38 -36 34 -41 -3 -5 1 -9 9 -9 8 0 13 10 13
22 -1 29 37 32 43 3 3 -17 2 -18 -14 -5 -16 13 -18 13 -13 0 3 -8 14 -15 25
-15 11 -1 29 -7 39 -15 16 -14 17 -13 12 7 -4 16 -1 23 13 25 14 2 16 6 8 18
-8 12 -12 12 -16 2 -4 -10 -9 -7 -17 9 -13 26 -39 39 -30 15 9 -24 -7 -19 -49
17 -27 23 -36 38 -31 50 9 25 29 21 44 -10z m-457 -14 c45 -12 50 -24 6 -15
-29 6 -31 4 -27 -19 3 -15 1 -25 -6 -25 -16 1 -83 39 -68 40 26 0 10 19 -23
26 -19 3 -35 10 -35 14 0 8 92 -5 153 -21z m273 16 c10 -8 15 -14 9 -14 -5 0
-19 6 -29 14 -11 8 -15 15 -10 15 6 0 19 -7 30 -15z m-554 -12 c-6 -2 -9 -10
-5 -16 4 -6 0 -8 -10 -4 -9 3 -19 2 -22 -3 -4 -6 -15 -10 -26 -10 -11 0 -17 5
-14 10 4 6 10 8 15 5 4 -3 10 2 14 10 3 9 17 15 33 14 15 0 22 -3 15 -6z m448
-13 c0 -5 -2 -10 -4 -10 -3 0 -8 5 -11 10 -3 6 -1 10 4 10 6 0 11 -4 11 -10z
m55 -11 c11 -16 1 -19 -13 -3 -7 8 -8 14 -3 14 5 0 13 -5 16 -11z m-397 -10
c71 -13 152 -44 152 -59 0 -6 7 -10 15 -10 8 0 15 -5 15 -11 0 -11 -15 -8 -95
22 -27 11 -59 19 -70 20 -17 1 -16 2 5 10 23 8 22 8 -7 5 -18 -1 -33 0 -33 4
0 4 -17 11 -37 17 -52 14 -23 15 55 2z m-8 -41 c93 -42 134 -65 138 -77 6 -18
-17 -12 -39 10 -23 23 -96 59 -119 58 -8 0 5 -11 30 -24 56 -30 51 -31 -24 -5
-31 12 -90 24 -129 29 -40 5 -57 9 -39 10 20 1 32 6 32 15 0 25 79 17 150 -16z
m440 17 c7 -9 8 -15 2 -15 -5 0 -12 7 -16 15 -3 8 -4 15 -2 15 2 0 9 -7 16
-15z m-20 -26 c0 -6 -4 -7 -10 -4 -5 3 -10 11 -10 16 0 6 5 7 10 4 6 -3 10
-11 10 -16z m-707 -49 c-23 -22 -46 -40 -52 -40 -6 0 -11 -4 -11 -10 0 -5 -5
-10 -11 -10 -14 0 52 78 67 79 6 1 17 8 24 16 7 9 15 13 18 10 3 -2 -13 -23
-35 -45z m221 21 c3 -5 0 -11 -7 -14 -8 -3 -14 1 -14 9 0 16 13 19 21 5z m-61
-8 c-7 -2 -21 -2 -30 0 -10 3 -4 5 12 5 17 0 24 -2 18 -5z m107 -8 c0 -9 -6
-12 -15 -9 -8 4 -15 10 -15 15 0 5 7 9 15 9 8 0 15 -7 15 -15z m-115 -15 c25
-11 -1 -11 -35 0 -20 6 -21 8 -5 8 11 0 29 -3 40 -8z m189 0 c7 0 21 -7 32
-15 18 -13 18 -14 -5 -8 -15 4 -22 2 -18 -4 4 -6 -9 -3 -27 6 -32 15 -40 39
-9 27 8 -3 20 -6 27 -6z m-261 -17 c-7 -2 -19 -2 -25 0 -7 3 -2 5 12 5 14 0
19 -2 13 -5z m50 -10 c-7 -2 -19 -2 -25 0 -7 3 -2 5 12 5 14 0 19 -2 13 -5z
m144 1 c-3 -3 -12 -4 -19 -1 -8 3 -5 6 6 6 11 1 17 -2 13 -5z m303 -9 c20 -24
6 -28 -15 -5 -10 11 -13 20 -8 20 6 0 16 -7 23 -15z m487 -17 c-3 -8 -6 -5 -6
6 -1 11 2 17 5 13 3 -3 4 -12 1 -19z m-980 -4 c-3 -3 -12 -4 -19 -1 -8 3 -5 6
6 6 11 1 17 -2 13 -5z m-202 -72 c-8 -8 -25 10 -19 20 4 6 9 5 15 -3 4 -7 6
-15 4 -17z m1275 -60 c-7 -3 -19 3 -28 13 -16 15 -15 16 12 4 15 -7 23 -15 16
-17z m31 -39 c13 -16 12 -17 -3 -4 -17 13 -22 21 -14 21 2 0 10 -8 17 -17z
m-21 -121 c0 -15 -2 -15 -10 -2 -13 20 -13 33 0 25 6 -3 10 -14 10 -23z m194
-444 c8 -13 17 -57 21 -98 6 -69 3 -86 -35 -215 -23 -77 -42 -157 -41 -177 2
-42 -26 -78 -58 -78 -27 0 -31 9 -32 79 -1 44 3 67 14 79 10 11 14 27 10 40
-5 19 -1 22 25 22 16 0 35 6 41 13 16 20 3 119 -17 133 -57 42 -58 42 -44 63
6 12 12 30 12 41 0 11 5 20 11 20 8 0 9 11 5 32 -12 59 57 94 88 46z m-124
-312 c0 -7 -7 -21 -15 -32 -13 -18 -14 -16 -15 25 0 37 2 42 15 31 8 -7 15
-18 15 -24z m-1003 -172 c43 -40 23 -65 -57 -68 -19 -1 -41 -5 -48 -10 -26
-16 -22 3 13 63 40 67 35 67 92 15z m453 2 c0 -3 -4 -8 -10 -11 -5 -3 -10 -1
-10 4 0 6 5 11 10 11 6 0 10 -2 10 -4z m-37 -25 c4 -15 -2 -22 -24 -30 -32
-11 -36 -3 -19 30 14 25 36 25 43 0z m79 7 c-9 -9 -15 -9 -24 0 -9 9 -7 12 12
12 19 0 21 -3 12 -12z m-203 -104 c3 -3 -1 -10 -9 -15 -19 -13 -150 -4 -164
12 -8 9 -8 10 1 5 6 -3 14 -2 17 3 4 5 17 8 31 6 14 -1 25 1 25 5 0 8 90 -6
99 -16z m-189 2 c0 -3 -4 -8 -10 -11 -5 -3 -10 -1 -10 4 0 6 5 11 10 11 6 0
10 -2 10 -4z m-1411 -46 c-16 -10 -30 6 -22 26 4 11 8 10 21 -2 13 -13 13 -17
1 -24z m2291 -25 c0 -8 -4 -15 -10 -15 -5 0 -10 7 -10 15 0 8 5 15 10 15 6 0
10 -7 10 -15z m-632 -12 c7 -12 10 -12 21 1 17 20 40 20 48 0 3 -8 12 -13 19
-10 9 3 14 -2 14 -14 0 -13 -7 -20 -20 -20 -11 0 -23 -7 -26 -15 -8 -20 -30
-19 -38 1 -10 25 -18 10 -11 -18 4 -14 14 -25 23 -26 24 -1 102 19 102 27 0 4
9 7 20 7 11 0 20 -4 20 -9 0 -5 7 -4 15 3 20 17 19 6 -6 -65 -11 -33 -30 -66
-41 -73 -11 -8 -17 -20 -13 -29 3 -9 -3 -33 -12 -54 -13 -28 -24 -39 -40 -39
-13 0 -23 -4 -23 -9 0 -13 -38 -22 -105 -25 -67 -3 -105 -13 -105 -27 0 -14
-17 -11 -34 7 -11 10 -36 16 -74 17 -64 2 -88 20 -120 90 -9 20 -20 37 -23 37
-4 0 -5 8 -2 19 3 11 -2 21 -11 24 -9 4 -16 13 -16 22 0 8 -4 15 -9 15 -11 0
-21 38 -14 56 3 8 15 14 27 14 29 0 39 10 25 27 -6 7 -7 13 -2 13 5 0 15 -9
23 -20 8 -11 18 -20 23 -20 5 0 29 -16 53 -36 25 -20 47 -34 51 -31 3 4 -6 16
-21 28 -32 25 -25 41 18 38 17 -2 32 1 33 6 2 6 -6 10 -18 10 -11 0 -23 6 -28
14 -7 11 -10 10 -18 -3 -12 -21 -28 -6 -38 37 -6 21 -4 27 8 27 9 0 19 -5 22
-11 5 -7 12 -5 23 4 22 20 47 23 170 24 79 0 104 -3 110 -14z m595 -439 c73
-102 69 -171 -26 -411 -57 -143 -62 -158 -97 -308 -45 -190 -56 -217 -108
-255 -86 -63 -132 -104 -132 -117 0 -7 -6 -10 -12 -8 -7 3 -65 -32 -128 -76
-63 -45 -125 -85 -138 -90 -12 -5 -25 -16 -28 -24 -4 -8 -12 -15 -19 -15 -18
0 -86 -40 -106 -62 -9 -10 -20 -18 -24 -18 -4 0 -20 -9 -36 -21 -16 -11 -29
-18 -29 -15 0 21 -40 -40 -46 -68 -10 -54 -24 -43 -22 17 2 36 -4 64 -19 92
-12 25 -18 47 -13 59 4 14 9 16 14 8 11 -18 23 -14 29 8 3 11 11 20 19 20 26
0 52 110 29 124 -5 4 -5 18 2 36 8 21 8 33 1 40 -19 19 -48 -57 -49 -127 0
-34 -4 -65 -9 -70 -5 -4 -6 3 -2 19 3 15 2 30 -4 33 -6 4 -7 -1 -3 -11 4 -12
3 -15 -6 -10 -9 6 -10 0 -6 -21 5 -19 4 -24 -3 -14 -7 10 -13 0 -23 -38 -7
-28 -17 -51 -21 -51 -5 0 -6 -5 -2 -12 4 -7 3 -8 -4 -4 -13 8 -52 -10 -52 -24
0 -5 9 -8 20 -7 11 1 20 5 20 9 0 4 14 8 30 8 19 0 30 -5 30 -14 0 -16 -60
-80 -67 -72 -3 3 9 19 27 36 18 17 29 34 26 38 -4 3 -18 -6 -32 -21 -14 -15
-30 -27 -37 -27 -8 0 -7 4 3 10 8 5 11 12 7 16 -4 4 -28 -14 -52 -40 -25 -26
-45 -42 -45 -36 0 7 14 24 30 38 30 26 44 56 15 32 -11 -9 -15 -9 -15 -1 0 8
-5 9 -19 1 -25 -13 -31 -13 -31 0 0 6 5 10 11 10 20 0 39 28 37 54 l-2 26 -26
-25 c-48 -46 -40 -26 10 27 27 29 46 54 42 58 -4 3 -7 15 -6 28 1 12 -1 20 -5
16 -3 -3 -6 -11 -6 -16 0 -20 -23 -19 -29 0 -5 15 -13 18 -29 14 -21 -5 -21
-4 3 16 14 12 20 21 13 22 -7 0 -10 7 -7 15 7 17 -6 20 -24 5 -9 -7 -9 -7 -2
2 6 7 10 15 10 19 0 13 -32 19 -51 9 -10 -6 -19 -7 -19 -2 0 7 29 24 83 50 4
2 7 -1 7 -6 0 -6 -9 -14 -21 -17 -11 -4 -18 -9 -16 -12 3 -2 15 0 26 7 17 9
21 8 21 -5 0 -8 4 -15 9 -15 5 0 6 12 2 27 -5 18 -16 30 -32 33 -23 6 -24 6
-4 19 l20 13 -20 -7 c-48 -17 -58 -18 -51 -7 5 8 2 10 -8 6 -29 -11 -16 6 24
31 23 15 40 32 39 43 -1 16 -2 16 -6 0 -2 -9 -12 -20 -22 -23 -10 -3 -29 -14
-41 -25 -24 -21 -63 -18 -87 6 -19 19 -16 37 4 26 11 -7 21 -5 31 5 8 8 21 12
29 9 16 -6 58 12 49 21 -3 3 -13 0 -22 -7 -13 -12 -17 -11 -24 0 -5 9 -5 20 2
27 7 9 7 13 -2 13 -9 0 -10 3 -1 13 6 8 8 17 4 21 -4 4 0 4 10 0 13 -5 16 -2
11 10 -3 9 -2 16 3 16 6 0 9 14 8 30 -1 24 2 30 19 31 17 1 18 2 4 6 -10 2
-18 9 -18 14 0 6 -4 8 -8 5 -4 -2 -9 4 -9 15 -1 11 4 22 12 25 8 3 11 12 8 20
-3 9 0 14 8 12 13 -3 14 4 7 60 -1 6 -8 12 -15 12 -8 0 -12 4 -9 9 3 5 14 7
24 4 30 -8 43 72 42 258 -1 90 1 171 4 180 4 8 -2 35 -13 59 l-19 44 -7 -37
c-4 -20 -14 -42 -23 -49 -13 -11 -14 -11 -7 2 8 13 7 13 -8 1 -9 -7 -17 -24
-17 -36 0 -12 -7 -29 -16 -36 -13 -11 -17 -10 -25 4 -6 9 -16 17 -23 17 -7 0
-20 6 -29 13 -15 10 -15 17 -6 43 7 17 26 39 43 50 93 59 84 56 95 26 8 -22
10 -23 10 -7 2 37 46 23 96 -28 25 -26 45 -53 45 -60 1 -20 28 -50 39 -42 6 3
9 0 5 -8 -3 -8 9 -21 31 -32 40 -22 44 -34 15 -42 -17 -5 -14 -9 20 -32 22
-15 47 -37 56 -49 8 -12 21 -22 28 -22 12 0 44 -21 77 -52 17 -16 19 -16 19
-2 0 10 6 14 14 11 7 -3 19 0 25 6 9 9 14 8 21 -2 6 -11 12 -12 22 -3 9 7 45
10 96 8 56 -2 82 0 82 8 0 6 4 5 9 -3 6 -9 11 -10 15 -2 4 6 13 11 19 11 19
-1 -25 -30 -45 -30 -9 0 -22 -9 -28 -20 -14 -27 -7 -25 59 12 69 40 106 61
149 83 25 14 30 20 20 27 -9 7 -8 8 6 4 25 -9 48 12 40 37 -4 12 -2 17 4 13
20 -12 29 19 22 74 -5 40 -4 57 5 62 9 5 11 21 8 48 -3 24 -2 40 5 40 5 0 17
19 27 42 9 23 29 58 44 77 31 39 71 114 71 131 0 6 6 17 13 24 10 11 13 1 18
-53 6 -56 13 -76 42 -117z m-2263 -161 c0 -13 4 -21 10 -18 6 3 10 1 10 -5 0
-7 -8 -9 -20 -5 -16 5 -19 3 -14 -12 5 -17 5 -17 -6 0 -8 13 -19 17 -36 13
-31 -8 -30 1 2 35 30 32 54 28 54 -8z m3080 -199 c0 -8 5 -14 10 -14 11 0 13
-39 4 -64 -6 -16 -43 -16 -92 -1 -15 5 12 83 36 102 17 14 42 1 42 -23z
m-1230 -68 c0 -3 -4 -8 -10 -11 -5 -3 -10 -1 -10 4 0 6 5 11 10 11 6 0 10 -2
10 -4z m-1060 -117 c13 -9 13 -10 0 -6 -8 2 -23 0 -32 -5 -14 -6 -16 -5 -12 7
7 18 23 19 44 4z m280 -169 c0 -5 -4 -10 -10 -10 -5 0 -10 5 -10 10 0 6 5 10
10 10 6 0 10 -4 10 -10z m-90 -104 c0 -2 -7 -7 -16 -10 -8 -3 -12 -2 -9 4 6
10 25 14 25 6z m-15 -46 c3 -5 -1 -10 -9 -10 -9 0 -16 5 -16 10 0 6 4 10 9 10
6 0 13 -4 16 -10z m10 -70 c3 -6 -1 -7 -9 -4 -18 7 -21 14 -7 14 6 0 13 -4 16
-10z m5 -64 c0 -2 -7 -6 -15 -10 -8 -3 -15 -1 -15 4 0 6 7 10 15 10 8 0 15 -2
15 -4z m-89 -127 c-25 -24 -26 -22 -4 22 14 27 18 30 21 16 2 -11 -6 -28 -17
-38z m83 1 c3 -17 5 -33 5 -37 0 -4 8 -10 18 -14 17 -7 17 -8 0 -8 -13 -1 -17
-8 -15 -31 3 -35 7 -36 41 -10 14 11 29 20 33 20 4 0 -1 -9 -11 -20 -11 -12
-13 -20 -6 -20 7 0 9 -5 5 -11 -4 -8 -8 -8 -13 0 -8 12 -51 3 -51 -11 0 -5 -4
-6 -10 -3 -5 3 -10 1 -10 -4 0 -6 5 -11 10 -11 6 0 10 -4 10 -8 0 -4 -16 -9
-36 -10 -22 -2 -33 1 -29 7 3 6 13 8 23 5 14 -5 14 -3 -2 10 -11 9 -15 16 -9
16 6 0 16 15 22 33 11 28 9 34 -10 50 -12 10 -24 15 -28 12 -3 -3 0 -10 8 -14
9 -6 6 -10 -12 -13 -21 -4 -24 -1 -23 21 1 21 5 26 26 24 14 -1 19 0 13 3 -21
9 -15 34 10 44 33 13 34 13 41 -20z m47 11 c-7 -5 -11 -14 -7 -20 5 -7 1 -9
-8 -5 -19 7 -21 20 -3 27 20 9 33 7 18 -2z m54 -1 c-3 -5 -11 -10 -16 -10 -6
0 -7 5 -4 10 3 6 11 10 16 10 6 0 7 -4 4 -10z m262 -92 c-3 -8 -6 -5 -6 6 -1
11 2 17 5 13 3 -3 4 -12 1 -19z m-317 -2 c0 -11 -19 -15 -25 -6 -3 5 1 10 9
10 9 0 16 -2 16 -4z m-90 -16 c0 -13 -11 -13 -30 0 -12 8 -11 10 8 10 12 0 22
-4 22 -10z m84 -55 c-7 -18 7 -20 24 -3 9 9 12 9 12 1 0 -7 -5 -15 -10 -18 -7
-4 -2 -15 12 -27 l23 -20 -22 6 c-18 6 -25 2 -34 -18 -12 -26 -35 -26 -25 0 6
16 4 17 -18 8 -17 -7 -22 -34 -6 -34 6 0 10 -7 10 -15 0 -8 -7 -15 -15 -15 -9
0 -15 6 -13 13 1 6 -2 23 -6 36 -10 29 5 41 46 36 32 -5 35 0 13 22 -12 12
-13 18 -4 29 15 18 20 18 13 -1z m106 11 c0 -2 -7 -7 -16 -10 -8 -3 -12 -2 -9
4 6 10 25 14 25 6z m-220 -51 c0 -18 -5 -25 -19 -25 -22 0 -39 19 -19 21 7 1
16 1 21 0 4 0 6 2 6 7 -2 12 1 22 6 22 3 0 5 -11 5 -25z m220 -19 c0 -2 -7 -7
-16 -10 -8 -3 -12 -2 -9 4 6 10 25 14 25 6z m-244 -58 c-9 -5 -21 -6 -28 -2
-8 5 -5 10 8 14 25 10 41 0 20 -12z m259 -7 c-3 -6 -11 -11 -17 -11 -6 0 -6 6
2 15 14 17 26 13 15 -4z m-220 -32 c-8 -12 -35 -12 -35 0 0 11 22 20 33 14 4
-2 5 -9 2 -14z m35 4 c0 -5 -5 -15 -10 -23 -8 -12 -10 -11 -10 8 0 12 5 22 10
22 6 0 10 -3 10 -7z m70 -3 c0 -5 -4 -10 -10 -10 -5 0 -10 5 -10 10 0 6 5 10
10 10 6 0 10 -4 10 -10z m50 0 c0 -5 -4 -10 -10 -10 -5 0 -10 5 -10 10 0 6 5
10 10 10 6 0 10 -4 10 -10z m-220 -30 c0 -5 -4 -10 -10 -10 -5 0 -10 5 -10 10
0 6 5 10 10 10 6 0 10 -4 10 -10z m140 2 c0 -5 -9 -17 -20 -27 -19 -18 -20
-17 -20 3 0 18 11 29 33 31 4 1 7 -3 7 -7z m395 -12 c3 -5 1 -10 -4 -10 -6 0
-11 5 -11 10 0 6 2 10 4 10 3 0 8 -4 11 -10z m-287 -51 c-3 -26 -28 -39 -28
-15 0 9 5 16 11 16 6 0 8 9 4 23 -6 17 -4 19 5 11 6 -7 10 -22 8 -35z m81 20
c-16 -10 -23 -4 -14 10 3 6 11 8 17 5 6 -4 5 -9 -3 -15z m-132 -21 c-3 -7 -5
-2 -5 12 0 14 2 19 5 13 2 -7 2 -19 0 -25z m193 9 c0 -5 -8 -6 -17 -3 -32 9
-120 -97 -90 -107 9 -3 8 -9 -3 -22 -12 -14 -12 -19 -2 -23 19 -6 42 -32 41
-45 0 -9 -2 -9 -5 0 -3 7 -11 10 -18 7 -7 -3 -18 2 -25 10 -6 7 -21 12 -31 9
-14 -4 -20 0 -20 11 0 9 3 15 8 15 4 -1 14 -1 22 0 13 1 13 2 0 11 -13 8 -13
10 2 10 14 0 15 5 8 30 -5 19 -5 30 1 30 6 0 7 5 4 10 -3 6 -1 10 4 10 6 0 11
-5 11 -12 0 -6 3 -8 6 -5 4 4 1 14 -7 24 -12 14 -12 16 1 11 9 -3 29 5 44 17
29 23 66 30 66 12z m-440 -37 c0 -5 -2 -10 -4 -10 -3 0 -8 5 -11 10 -3 6 -1
10 4 10 6 0 11 -4 11 -10z m40 -4 c0 -11 -19 -15 -25 -6 -3 5 1 10 9 10 9 0
16 -2 16 -4z m87 -12 c-3 -3 -12 -4 -19 -1 -8 3 -5 6 6 6 11 1 17 -2 13 -5z
m138 -10 l20 -15 -20 -12 c-45 -27 -63 -26 -68 2 -3 14 -4 28 -2 31 7 12 51 8
70 -6z m123 -59 c1 -1 -4 -7 -11 -13 -11 -9 -16 -6 -25 13 -11 24 -11 25 11
14 12 -6 23 -13 25 -14z m-268 -18 c0 -10 5 -15 10 -12 6 3 10 -1 10 -9 0 -27
-20 -28 -30 -2 -6 17 -17 26 -30 26 -12 0 -19 4 -16 9 11 17 56 7 56 -12z
m153 6 c-7 -2 -19 -2 -25 0 -7 3 -2 5 12 5 14 0 19 -2 13 -5z m-58 -21 c3 -8
-3 -16 -15 -19 -11 -3 -20 -10 -20 -17 0 -6 -5 -4 -10 6 -6 9 -8 22 -5 30 7
18 43 18 50 0z m53 -71 c3 -8 -1 -12 -9 -9 -7 2 -15 10 -17 17 -3 8 1 12 9 9
7 -2 15 -10 17 -17z m65 -29 c-2 -6 1 -12 7 -12 5 0 7 -7 4 -15 -4 -8 -10 -15
-15 -15 -5 0 -9 7 -9 15 0 8 -4 15 -10 15 -5 0 -10 -7 -10 -15 0 -8 -4 -15
-10 -15 -11 0 -14 43 -3 54 11 11 48 2 46 -12z m93 5 c4 -4 -2 -7 -14 -7 -12
0 -22 4 -22 9 0 10 26 9 36 -2z m-316 -7 c0 -5 -4 -10 -9 -10 -6 0 -13 5 -16
10 -3 6 1 10 9 10 9 0 16 -4 16 -10z m-135 -130 c3 -5 1 -10 -4 -10 -6 0 -11
5 -11 10 0 6 2 10 4 10 3 0 8 -4 11 -10z m352 4 c-3 -3 -12 -4 -19 -1 -8 3 -5
6 6 6 11 1 17 -2 13 -5z m58 -13 c3 -5 1 -12 -5 -16 -5 -3 -10 1 -10 9 0 18 6
21 15 7z m-28 -33 c-3 -8 -6 -5 -6 6 -1 11 2 17 5 13 3 -3 4 -12 1 -19z m-160
-4 c-3 -3 -12 -4 -19 -1 -8 3 -5 6 6 6 11 1 17 -2 13 -5z m199 -16 c-10 -6
-20 -7 -24 -3 -9 8 20 25 31 18 5 -3 2 -10 -7 -15z m84 2 c0 -5 -4 -10 -10
-10 -5 0 -10 5 -10 10 0 6 5 10 10 10 6 0 10 -4 10 -10z m-60 -20 c0 -5 -5
-10 -11 -10 -8 0 -8 -4 0 -14 9 -11 8 -15 -5 -20 -23 -9 -26 -3 -15 28 10 25
31 36 31 16z m-170 -64 c0 -3 -4 -8 -10 -11 -5 -3 -10 -1 -10 4 0 6 5 11 10
11 6 0 10 -2 10 -4z m110 -56 c0 -5 -2 -10 -4 -10 -3 0 -8 5 -11 10 -3 6 -1
10 4 10 6 0 11 -4 11 -10z"/>
<path d="M2098 4313 c7 -3 16 -2 19 1 4 3 -2 6 -13 5 -11 0 -14 -3 -6 -6z"/>
<path d="M2527 4121 c3 -12 10 -21 15 -21 13 0 6 32 -9 37 -7 3 -9 -3 -6 -16z"/>
<path d="M2670 4071 c0 -9 30 -24 36 -18 2 1 -6 8 -16 15 -11 7 -20 8 -20 3z"/>
<path d="M1830 3940 c0 -5 5 -10 10 -10 6 0 10 5 10 10 0 6 -4 10 -10 10 -5 0
-10 -4 -10 -10z"/>
<path d="M1900 3386 c0 -2 11 -6 25 -8 13 -3 22 -1 19 3 -5 9 -44 13 -44 5z"/>
<path d="M2335 3379 c-16 -5 -35 -16 -42 -25 -6 -9 -15 -14 -20 -11 -4 3 -16
0 -25 -7 -24 -18 -53 -96 -30 -82 5 3 6 -8 4 -25 -5 -31 6 -36 39 -19 22 12
23 11 9 -25 -6 -17 -14 -24 -22 -19 -9 5 -9 2 1 -9 7 -9 19 -17 25 -17 7 0 6
4 -2 9 -11 7 -10 10 3 15 28 10 39 7 26 -8 -9 -11 6 -19 84 -45 93 -31 96 -31
152 -17 57 15 90 35 63 38 -32 3 -35 4 -49 12 -10 7 -7 12 15 21 23 9 33 9 51
-2 29 -19 34 -5 14 37 -25 55 -68 71 -184 69 -53 -1 -100 -5 -102 -9 -3 -5
-14 -6 -26 -3 -19 5 -18 7 8 18 119 53 145 59 191 46 39 -12 89 -4 96 14 2 7
-4 22 -15 34 -18 19 -30 21 -127 20 -59 0 -120 -5 -137 -10z m85 -179 c0 -13
-11 -13 -30 0 -12 8 -11 10 8 10 12 0 22 -4 22 -10z m-47 -37 c-7 -2 -21 -2
-30 0 -10 3 -4 5 12 5 17 0 24 -2 18 -5z"/>
<path d="M1667 3370 c-17 -11 -25 -26 -41 -77 -6 -17 -3 -23 8 -23 9 0 16 9
16 20 0 11 5 20 10 20 6 0 10 -7 10 -15 0 -13 4 -12 21 4 44 40 134 35 194
-13 19 -15 18 -15 -20 -17 -22 -1 -44 -1 -48 0 -5 1 -6 -3 -2 -9 4 -6 -7 -10
-29 -10 -19 0 -37 6 -39 13 -4 9 -6 9 -6 0 -1 -7 -7 -10 -15 -7 -18 7 -82 -52
-91 -83 -5 -19 -2 -23 14 -23 12 0 21 5 21 10 0 6 7 10 15 10 8 0 15 -4 15 -9
0 -5 24 -12 53 -17 47 -6 50 -8 24 -15 -16 -4 -40 -3 -55 2 -27 10 -52 6 -52
-10 0 -15 31 -23 103 -28 51 -4 73 -1 92 11 13 9 33 16 43 16 25 0 72 41 72
63 0 9 4 17 9 17 11 0 24 -82 15 -103 -4 -11 -1 -17 7 -17 7 0 10 3 6 6 -3 4
1 13 9 22 9 8 11 18 6 21 -5 3 -9 37 -10 75 -4 128 -56 167 -231 173 -67 2
-113 0 -124 -7z m218 -170 c-3 -5 -11 -10 -16 -10 -6 0 -7 5 -4 10 3 6 11 10
16 10 6 0 7 -4 4 -10z"/>
<path d="M2187 3323 c-2 -12 -1 -23 3 -23 4 0 12 11 17 23 9 18 8 24 -2 24 -7
0 -15 -11 -18 -24z"/>
<path d="M2010 3331 c0 -6 4 -13 10 -16 6 -3 7 1 4 9 -7 18 -14 21 -14 7z"/>
<path d="M1531 3288 c-4 -12 -9 -49 -9 -82 -2 -49 0 -57 9 -42 13 21 26 146
15 146 -4 0 -10 -10 -15 -22z"/>
<path d="M2034 3244 c0 -30 4 -54 9 -54 4 0 6 -10 2 -22 -5 -21 -5 -21 6 -5
11 19 4 123 -9 131 -4 2 -7 -20 -8 -50z"/>
<path d="M2651 3256 c7 -15 17 -22 26 -19 11 5 11 9 -3 24 -24 26 -36 24 -23
-5z"/>
<path d="M1491 3254 c0 -11 3 -14 6 -6 3 7 2 16 -1 19 -3 4 -6 -2 -5 -13z"/>
<path d="M2180 3226 c0 -9 5 -16 10 -16 6 0 10 4 10 9 0 6 -4 13 -10 16 -5 3
-10 -1 -10 -9z"/>
<path d="M1410 3172 c6 -13 14 -21 18 -18 3 4 -2 14 -12 24 -18 16 -18 16 -6
-6z"/>
<path d="M2989 3251 c-19 -15 -21 -22 -12 -33 7 -8 15 -33 19 -56 4 -23 11
-45 15 -48 5 -3 9 -17 9 -32 0 -20 3 -23 12 -14 8 8 12 41 10 99 -3 112 -9
120 -53 84z"/>
<path d="M2085 2510 c-4 -6 7 -10 24 -10 17 0 31 5 31 10 0 6 -11 10 -24 10
-14 0 -28 -4 -31 -10z"/>
<path d="M2223 2513 c9 -2 23 -2 30 0 6 3 -1 5 -18 5 -16 0 -22 -2 -12 -5z"/>
<path d="M2230 2450 c-12 -8 -11 -10 8 -10 12 0 22 5 22 10 0 13 -11 13 -30 0z"/>
<path d="M1957 2381 c9 -61 28 -71 138 -80 71 -5 104 -3 122 6 13 7 27 12 31
12 21 -3 31 3 38 23 3 12 16 29 27 38 11 9 17 21 14 27 -8 12 -119 8 -146 -6
-14 -8 -28 -8 -48 0 -15 6 -44 8 -63 5 -19 -2 -54 -1 -77 3 l-41 8 5 -36z"/>
<path d="M1907 1689 c7 -7 15 -10 18 -7 3 3 -2 9 -12 12 -14 6 -15 5 -6 -5z"/>
<path d="M2284 1625 c-10 -8 -14 -15 -8 -15 6 0 17 7 24 15 16 19 9 19 -16 0z"/>
<path d="M2044 1591 c4 -6 16 -16 28 -22 15 -8 18 -8 14 0 -4 6 -16 16 -28 22
-15 8 -18 8 -14 0z"/>
<path d="M2209 1573 c-13 -16 -12 -17 4 -4 9 7 17 15 17 17 0 8 -8 3 -21 -13z"/>
<path d="M2011 1476 c-22 -19 -53 -49 -68 -68 -25 -31 -25 -31 -3 -12 31 27
86 55 93 48 3 -3 3 3 0 14 -3 13 3 25 18 36 13 9 18 16 12 16 -6 0 -30 -15
-52 -34z"/>
<path d="M2233 1457 c-4 -7 -17 -13 -28 -13 -11 0 -19 -5 -18 -12 2 -6 -13
-18 -32 -27 -19 -8 -50 -22 -69 -30 -27 -12 -34 -20 -31 -37 6 -27 18 -40 13
-13 -2 15 3 21 20 23 13 2 26 10 29 18 3 7 21 16 41 20 38 7 117 44 94 44 -7
0 -10 5 -7 11 4 6 14 8 22 4 13 -4 14 -3 3 10 -15 18 -26 19 -37 2z"/>
<path d="M2321 1361 c-9 -20 -23 -34 -40 -38 -30 -7 -107 -83 -113 -110 -2
-10 -11 -16 -19 -14 -8 2 -38 10 -67 18 -42 11 -61 12 -88 3 -19 -6 -34 -16
-34 -21 0 -5 11 -3 25 3 28 12 93 2 160 -26 28 -12 35 -20 35 -42 0 -26 1 -27
14 -8 10 13 11 21 4 26 -15 8 108 97 163 117 23 9 44 21 45 26 2 6 -14 30 -35
54 l-37 44 -13 -32z"/>
<path d="M1882 1307 c-18 -38 -32 -71 -32 -73 0 -2 17 4 38 13 20 10 38 18 39
18 1 0 -2 25 -6 55 l-8 55 -31 -68z"/>
<path d="M1666 1295 c-3 -8 0 -15 5 -15 7 0 9 -11 7 -25 -3 -14 -1 -25 4 -25
4 0 7 18 6 40 -3 41 -12 51 -22 25z"/>
<path d="M2040 1274 c0 -8 5 -12 10 -9 6 4 8 11 5 16 -9 14 -15 11 -15 -7z"/>
<path d="M1647 1206 c-16 -13 -15 -14 16 -13 24 1 33 5 30 14 -7 17 -23 16
-46 -1z"/>
<path d="M1954 1155 c-7 -17 4 -37 17 -30 12 8 12 45 -1 45 -6 0 -13 -7 -16
-15z"/>
<path d="M1595 1120 c-3 -5 -2 -10 4 -10 5 0 13 5 16 10 3 6 2 10 -4 10 -5 0
-13 -4 -16 -10z"/>
<path d="M1720 981 c0 -5 5 -13 10 -16 6 -3 10 -2 10 4 0 5 -4 13 -10 16 -5 3
-10 2 -10 -4z"/>
<path d="M1740 935 c-8 -9 -8 -15 -2 -15 12 0 26 19 19 26 -2 2 -10 -2 -17
-11z"/>
<path d="M1769 821 c11 -7 12 -13 3 -23 -16 -20 5 -43 25 -27 19 16 16 30 -4
22 -15 -6 -16 -4 -5 9 10 13 10 17 -4 22 -23 9 -31 7 -15 -3z"/>
<path d="M1940 770 c-13 -8 -13 -10 2 -10 9 0 20 5 23 10 8 13 -5 13 -25 0z"/>
<path d="M770 2041 c0 -6 5 -13 10 -16 6 -3 10 1 10 9 0 9 -4 16 -10 16 -5 0
-10 -4 -10 -9z"/>
<path d="M3955 1590 c-19 -7 -19 -7 3 -14 26 -9 41 -1 26 13 -5 5 -18 5 -29 1z"/>
</g>
</svg>
